<svg xmlns="http://www.w3.org/2000/svg" viewBox="0 0 691.3 246">
  <rect x="376.7" y="35.6" width="295.7" height="191.9" rx="5.5" ry="5.5" transform="translate(-3.3 14) rotate(-1.5)" opacity=".3"/>
  <rect x="212.4" y="35.5" width="155.1" height="188.2" rx="4" ry="4" transform="translate(7.8 -16.2) rotate(3.2)" opacity=".3"/>
  <rect x="42.2" y="35.6" width="146.3" height="191.9" rx="3.9" ry="3.9" transform="translate(-8.6 8.1) rotate(-3.9)" opacity=".3"/>
  <path d="M184.5,210.7c-47.5,8.7-92.4,14.5-140.7,13.6-4,0-7.4-2.7-7.8-6.6-5.7-59.1-11.4-118.1-17-177.2-.4-3.9,2.5-7.4,6.4-7.5,48.3.9,93.2-4.9,140.7-13.6,3.9-.6,7.4,2.3,7.7,6.2,5.7,59.1,11.4,118.1,17,177.2.4,3.9-2.5,7.3-6.4,7.9Z" fill="#f2f2f2"/>
  <path d="M48.5,101.6c.1,1.4.2,2.1.3,3.5,2.9-2.2,6.8-3.1,11.8-2.9,2.8.1,4.2.1,6.9.1,8.1,0,14.1,1.1,18.2,4.3,4.1,3.3,6.5,8.9,7.3,17.1,1.6,16.5,3.2,33.1,4.8,49.6-4.8.6-7.2.9-12.2,1.4-1.7-17.5-3.4-35-5.1-52.5-.3-2.9-1.4-5.1-3.2-6.7-1.9-1.6-4.3-2.3-7.3-2.3-3.9,0-5.9,0-9.9-.2-3.3-.1-5.7.6-7.2,2.2-1.5,1.6-2.1,3.4-1.9,5.3,1.7,18,3.5,36,5.2,54-5.2-.3-7.7-.4-12.8-.5-2.3-24.3-4.7-48.6-7-73,4.8,0,7.2.2,12.1.5Z"/>
  <path d="M169.4,156.7c-3.7,4.5-9.8,7.8-18.2,9.4-1.9.4-2.9.6-4.8.9-8.5,1.5-14.9,0-19.2-3.2-4.3-3.2-6.8-8.9-7.6-17.1-1-10.5-1.5-15.8-2.5-26.3-.8-8.2.6-14.4,4.2-18.5,3.6-4.2,9.7-6.4,18.1-7.9,1.9-.3,2.9-.5,4.8-.9,8.5-1.7,14.9-1.2,19.3,1.7,4.4,2.9,7,8.5,7.8,16.7,1,10.5,1.5,15.8,2.5,26.3.8,8.2-.7,14.4-4.3,18.9ZM155.1,104.6c-2-1.3-4.8-1.5-8.4-.8-3.1.6-4.6.9-7.7,1.4-3.6.6-6.2,1.8-7.9,3.6-1.7,1.9-2.4,4.3-2.1,7.3,1,10.7,2.1,21.4,3.1,32.1.3,3,1.4,5.3,3.4,6.7,2,1.4,4.8,1.9,8.4,1.3,3.1-.5,4.6-.8,7.7-1.4,3.6-.7,6.2-2.1,7.9-4.2,1.7-2,2.4-4.6,2.1-7.6-1-10.7-2.1-21.4-3.1-32.1-.3-3-1.4-5.2-3.4-6.4Z"/>
  <path d="M325.9,218.4c-48.3-13.1-90.8-17.6-140.8-13.8-3.9,0-6.7-3.4-6.4-7.3,5.8-59.1,11.6-118.1,17.4-177.2.4-3.9,3.8-6.7,7.7-6.8,50-3.8,92.4.7,140.8,13.8,3.9.8,6.7,4.3,6.4,8.1-5.8,59.1-11.6,118.1-17.4,177.2-.4,3.9-3.8,6.8-7.7,6Z" fill="#f2f2f2"/>
  <path d="M214.3,147.6c-2.3-2.9-3.2-6.9-2.7-12.2,1.5-14.8,2.9-29.7,4.4-44.5-5.5.7-8.3,1.2-13.9,1.6.4-4.4.6-6.6,1.1-10.9,5.5-.4,8.3-.9,13.9-1.6.7-7,1-10.5,1.7-17.5,5-.7,7.4-1,12.4-1.4-.7,7-1,10.5-1.7,17.5,8.5-.6,12.8.1,21.3.9-.4,4.4-.6,6.6-1.1,10.9-8.5-.8-12.8-1.5-21.3-.9-1.5,15.1-3,30.1-4.4,45.2-.2,2.1.2,3.6,1.2,4.4,1,.8,2.6,1.2,4.8,1.2,5.9,0,8.8.6,14.7,1.2-.4,4.4-.6,6.6-1.1,10.9-7.4-.7-11-1.4-18.4-1.1-5,.2-8.6-.9-10.9-3.8Z"/>
  <path d="M316,163.3c-1.4-1.3-2.6-2.8-3.6-4.5-2.5,2.2-5.6,2.6-9.3,1.5-5.2-1.6-7.8-2.3-13-3.1-7.4-1.2-12.6-2.9-15.7-6.2-3.1-3.3-4.2-8.5-3.5-15.7.1-1.2.2-1.8.3-2.9,1.2-13.2,9.8-22.3,23.5-20.4,7.2,1.2,10.9,2.4,18.1,4.8.3-2.9.4-4.4.7-7.3.3-3-.4-5.7-2.1-7.9-1.7-2.2-4.3-3.9-7.9-4.8-9-2.3-13.6-2.3-22.6-3.2.4-4.4.6-6.6,1.1-10.9,8.5.8,12.7.8,21.2,2.8,8.5,2,14.5,6.2,18.2,11.3,3.7,5,5.1,11.6,4.3,19.7-1.1,11.7-2.3,23.3-3.4,35-.1,1.5.3,2.7,1.4,3.8,1,1.1,2.9,2,5.5,2.6-.4,4.1-.6,6.1-1,10.2-3.2-.8-4.8-1.2-8-2.2-1.3-.4-2.6-1.2-4-2.5ZM308.5,148.6c.9-1.1,1.5-2.7,1.7-4.9.6-6.4.9-9.6,1.6-16-7.3-2.4-10.9-3.6-18.2-4.8-2.5-.4-4.7.2-6.5,1.7-1.8,1.5-2.8,3.5-3.1,6-.3,2.9-.4,4.4-.7,7.3-.2,2.5.2,4.4,1.2,5.7,1.1,1.3,2.8,2,5.4,2.3,5.2.7,7.8,1.4,13,2.9,2.9.9,4.8.8,5.7-.3Z"/>
  <path d="M189.3,207.3c-1.6.9-11-.9-11-.9v-1.9l12.7-.4s-.1,2.4-1.7,3.2Z" opacity=".3"/>
  <path d="M661.1,203.5c-47.6,6.3-95.8,16.6-143.8,19.9-50.1,3.4-101.5-.8-151.7-1-5.6.1-10.4-4.1-10.8-9.7-3.7-57.2-7.3-114.4-11-171.7-.4-5.6,3.9-10.4,9.5-10.5,50.2.1,101.6,4.4,151.7,1,47.9-3.2,96.2-13.5,143.8-19.9,5.5-.6,10.3,3.6,10.7,9.2,3.7,57.2,7.3,114.4,11,171.7.4,5.6-3.9,10.4-9.4,11Z" fill="#f2f2f2"/>
  <path d="M383.6,167.5c-2.9-3.3-4.5-7.6-4.9-12.8-1-14.9-1.9-29.7-2.9-44.6-5.7-.2-8.5-.2-14.2-.2-.3-4.4-.4-6.6-.7-11,5.6,0,8.5,0,14.2.2-.4-7-.7-10.5-1.1-17.6,5.1.1,7.6.2,12.7.4.4,7,.7,10.5,1.1,17.6,8.8.3,13.1.5,21.8.6.3,4.4.4,6.6.7,11-8.7,0-13.1-.3-21.8-.6,1,15.1,1.9,30.2,2.9,45.3.1,2.1.8,3.7,1.9,4.6,1.2.9,2.9,1.4,5.2,1.5,6.1.2,9.1.3,15.1.3.3,4.4.4,6.6.7,11-7.5,0-11.3-.2-18.8-.5-5.1-.2-9.1-1.9-12-5.2Z"/>
  <path d="M438.1,110.2c-.3-4.4-.4-6.6-.7-11,11.8-.2,23.6.2,35.4.7,1.3,20.7,2.7,41.4,4,62.2,9.1.3,13.7.5,22.6.4.3,4.4.4,6.6.7,11-11.9,0-23.8-.5-35.6-.9-1.3-20.7-2.7-41.4-4-62.2-9-.3-13.5-.4-22.3-.2ZM471.7,70.7c.3,5.3.5,7.9.8,13.2-5.8-.2-8.8-.3-14.6-.5-.3-5.3-.5-7.9-.8-13.2,5.8.2,8.8.3,14.6.5Z"/>
  <path d="M570,159.3c-3.7,4.3-9.5,7.1-17.6,8.5-1.8.3-2.7.5-4.6.8-8.1,1.4-14.2.5-18.3-2.7-4.1-3.2-6.5-8.9-7-17.1-.7-10.5-1-15.8-1.7-26.3-.5-8.2,1.1-14.3,4.8-18.6,3.7-4.2,9.6-7,17.6-8.4,1.8-.3,2.8-.5,4.6-.8,8.1-1.4,14.2-.5,18.3,2.6,4.1,3.1,6.5,8.8,7,17,.7,10.5,1,15.8,1.7,26.3.5,8.2-1.1,14.4-4.7,18.7ZM557.8,106.6c-1.9-1.4-4.5-1.8-7.9-1.2-2.9.5-4.4.8-7.4,1.3-3.4.6-6,1.8-7.6,3.8-1.7,1.9-2.4,4.4-2.2,7.4.7,10.7,1.4,21.5,2.1,32.2.2,3,1.2,5.2,3.1,6.6,1.9,1.4,4.5,1.8,8,1.2,2.9-.5,4.4-.8,7.4-1.3,3.4-.6,6-1.9,7.6-3.8,1.7-2,2.4-4.4,2.2-7.5-.7-10.7-1.4-21.5-2.1-32.2-.2-3-1.2-5.2-3.1-6.6Z"/>
  <path d="M607.8,87.1c0,1.4.1,2.1.2,3.5,2.8-2.8,6.5-4.6,11.2-5.3,2.6-.4,3.9-.7,6.6-1.1,7.7-1.3,13.6-.4,17.6,2.8,4,3.2,6.3,8.9,6.8,17.1l3.2,49.7c-4.9.6-7.3,1-12.2,1.8-1.1-17.6-2.2-35.1-3.4-52.7-.2-2.9-1.2-5.1-2.9-6.5-1.8-1.4-4.1-1.9-6.9-1.4-3.8.6-5.6,1-9.4,1.6-3.1.5-5.4,1.8-6.8,3.7-1.4,1.9-2.1,3.9-1.9,5.8,1.2,18,2.3,36.1,3.5,54.1-4.9.7-7.3,1.1-12.2,1.6-1.6-24.4-3.1-48.8-4.7-73.1,4.6-.5,6.9-.8,11.5-1.5Z"/>
</svg>
