<?xml version="1.0" encoding="UTF-8"?>
<svg id="Layer_3" xmlns="http://www.w3.org/2000/svg" version="1.1" viewBox="0 0 512 512">
  <rect x="71.7" y="70.7" width="414" height="414" rx="16.7" ry="16.7" style="opacity: .3;"/>
  <g>
    <path d="M465.8,446.8c-63.5,9.7-127.1,21.3-191.1,27.2-63.9,5.9-128.6,6.2-192.7,8.5-9.4.4-17.7-6.4-18.5-15.7-11.9-127.9-23.8-255.8-35.7-383.7-.9-9.3,6-17.6,15.4-18,64.1-2.2,128.7-2.5,192.7-8.5,64-5.9,127.6-17.5,191.1-27.2,9.2-1.3,17.5,5.6,18.3,14.9,11.9,127.9,23.8,255.8,35.7,383.7.9,9.3-6,17.5-15.2,18.8Z" style="fill: #f2f2f2;"/>
    <path d="M178.7,123.9c.5,5.6.8,8.3,1.3,13.9,14.1-11.1,30.4-14.2,47.7-16,9.5-.6,19-1.5,28.4-2.6,25.9-2.6,54.7-4.4,77,11.5,21.8,15.6,27.8,42.9,31,68,6.1,65.6,12.2,131.2,18.3,196.8-17.6,1.8-35.1,4-52.7,6.5-6.5-69.4-12.9-138.9-19.4-208.3-.2-9.1-5.8-20.7-13.5-25.9-8.8-6-20-7.5-30.5-5.9-13.5,1.8-27.1,3-40.7,3.8-10.5.4-22,3.2-29.1,11.4-5.9,6.9-8.5,14.3-7.8,22.1,6.6,71.4,13.3,142.7,19.9,214.1-17.5.7-34.8,1.8-52.3,3.2-9-96.5-17.9-192.9-26.9-289.4,16.4-1.4,32.8-2.5,49.2-3.1Z"/>
  </g>
</svg>